<svg xmlns="http://www.w3.org/2000/svg" width="64" height="64" fill-rule="evenodd" xmlns:v="https://vecta.io/nano"><path d="M30.274 3.093c.953-.55 2.504-.547 3.452 0L56.274 16.1c.953.55 1.726 1.894 1.726 2.987v26.017c0 1.1-.778 2.44-1.726 2.987L33.726 61.1c-.953.55-2.504.547-3.452 0L7.726 48.093C6.773 47.543 6 46.2 6 45.105V19.088c0-1.1.778-2.44 1.726-2.987L30.274 3.093z" fill="#9c033a"/><path d="M34.84 31.694h2.516V29.13h2.13v2.565h2.565v2.13h-2.565v2.516h-2.13v-2.516H34.84v-2.13zm8.952 0h2.516V29.13h2.13v2.565H51v2.13h-2.565v2.516h-2.13v-2.516H43.8v-2.13zm-12.758-4.826a5.2 5.2 0 0 0-1.921-1.462c-.76-.34-1.638-.5-2.635-.5s-1.92.193-2.77.578a6.63 6.63 0 0 0-2.21 1.615c-.623.7-1.1 1.513-1.462 2.465s-.527 1.983-.527 3.094c0 1.133.176 2.17.527 3.1s.833 1.757 1.445 2.448a6.55 6.55 0 0 0 2.159 1.615c.827.385 1.717.578 2.67.578 1.088 0 2.05-.227 2.9-.68a5.75 5.75 0 0 0 2.074-1.904l4.42 3.298c-1.02 1.428-2.312 2.482-3.876 3.162s-3.173 1.02-4.828 1.02c-1.88 0-3.615-.295-5.202-.884s-2.958-1.434-4.114-2.533-2.057-2.43-2.703-3.995-.97-3.3-.97-5.236.323-3.672.97-5.236 1.547-2.896 2.703-3.995 2.527-1.944 4.114-2.533 3.31-.893 5.2-.893a12.74 12.74 0 0 1 2.125.187 11.48 11.48 0 0 1 2.176.595c.714.272 1.4.635 2.057 1.088a8.18 8.18 0 0 1 1.768 1.666l-4.08 3.332z" fill="#fff"/></svg>