<svg xmlns="http://www.w3.org/2000/svg" width="64" height="64" fill-rule="evenodd" xmlns:v="https://vecta.io/nano"><path d="M61.762 41.286c0 1.8-1.476 3.286-3.286 3.286H5.524c-1.8 0-3.286-1.476-3.286-3.286V22.43c0-1.8 1.476-3.286 3.286-3.286h52.952c1.8 0 3.286 1.476 3.286 3.286v18.857z" fill="#003a2b"/><path d="M12.476 23.095h2.857v13.048c-1.43.286-2.524.38-3.667.38-3.43 0-5.238-1.57-5.238-4.524 0-2.857 1.905-4.762 4.857-4.762a5.19 5.19 0 0 1 1.238.143v-4.286h-.048zm0 6.57a3.3 3.3 0 0 0-.952-.143c-1.43 0-2.238.857-2.238 2.43 0 1.524.8 2.333 2.238 2.333.333 0 .57 0 .952-.095v-4.524zm7.333-2.2V34c0 2.238-.143 3.333-.667 4.286-.476.905-1.048 1.476-2.286 2.095l-2.62-1.238c1.238-.57 1.857-1.095 2.238-1.905s.524-1.762.524-4.2v-5.57h2.8zM17 23.143h2.8v2.905H17v-2.905zm4.524 4.952c1.238-.57 2.43-.857 3.714-.857 1.43 0 2.38.38 2.8 1.143.238.43.333.952.333 2.143v5.714c-1.286.2-2.857.333-4.048.333-2.38 0-3.43-.8-3.43-2.667 0-2 1.43-2.905 4.857-3.2v-.62c0-.524-.238-.714-.952-.714-1.048 0-2.238.286-3.333.857v-2.143h.048zm4.38 4.476c-1.857.2-2.476.476-2.476 1.2 0 .57.333.8 1.095.8.43 0 .8-.048 1.333-.143V32.57h.048zm3.857-4.667c1.667-.43 3.048-.62 4.43-.62 1.43 0 2.476.333 3.095.952.57.62.762 1.286.762 2.667v5.524h-2.8V31c0-1.095-.38-1.476-1.38-1.476-.38 0-.714.048-1.286.2v6.714h-2.8v-8.524zm9.38 10.048c1 .524 2 .762 3 .762 1.857 0 2.62-.762 2.62-2.524v-.048c-.57.286-1.095.38-1.8.38-2.476 0-4.048-1.62-4.048-4.2 0-3.2 2.333-5 6.43-5 1.2 0 2.333.143 3.667.38l-.952 2.048c-.762-.143-.048 0-.62-.095v.286l.048 1.2v1.524l.048 1.143v.762c0 2.43-.2 3.57-.8 4.476-.857 1.38-2.38 2.048-4.57 2.048-1.095 0-2.048-.143-3.048-.57v-2.57h.048zm5.62-8.38h-.286c-.57 0-1.2.143-1.62.38-.667.38-1.048 1.095-1.048 2.048 0 1.43.714 2.238 1.952 2.238.38 0 .714-.095 1.048-.2V29.57h-.048zm8.667-2.333c2.8 0 4.524 1.762 4.524 4.667 0 2.952-1.8 4.8-4.667 4.8-2.8 0-4.57-1.762-4.57-4.62.048-3 1.857-4.857 4.714-4.857h0zm-.048 7.143c1.095 0 1.714-.905 1.714-2.476 0-1.524-.62-2.476-1.714-2.476s-1.762.905-1.762 2.476c.048 1.62.667 2.476 1.762 2.476h0z" fill="#fff"/></svg>