<svg xmlns="http://www.w3.org/2000/svg" width="64" height="64" fill-rule="evenodd" xmlns:v="https://vecta.io/nano"><path d="M34.67 3.13c-1.508-1.51-3.955-1.51-5.465 0L3.132 29.206c-1.51 1.5-1.51 3.957 0 5.466L29.33 60.868c1.51 1.51 3.955 1.51 5.465 0L60.87 34.794a3.87 3.87 0 0 0 0-5.466L34.67 3.13z" fill="#f34f29"/><path d="M27.693 18.104a4.63 4.63 0 0 0-.336 1.737c0 1.848 1.08 3.444 2.643 4.192v16.75c-1.486.774-2.5 2.33-2.5 4.12 0 2.564 2.08 4.643 4.643 4.643s4.643-2.08 4.643-4.643c0-1.904-1.146-3.54-2.786-4.257V24.41l6.21 6.21A4.64 4.64 0 0 0 40 32c0 2.564 2.08 4.643 4.643 4.643s4.643-2.08 4.643-4.643-2.08-4.643-4.643-4.643a4.63 4.63 0 0 0-1.714.327l-6.487-6.487c.13-.43.2-.884.2-1.356 0-2.564-2.08-4.643-4.643-4.643-.472 0-.927.07-1.356.2L23.776 8.53l-2.828 2.828 6.745 6.745z" fill="#fff"/></svg>