<svg xmlns="http://www.w3.org/2000/svg" width="64" height="64" fill="none" fill-rule="evenodd" xmlns:v="https://vecta.io/nano"><g stroke="#000"><path d="M11.476 34.238c.095 1.667 1.762.905 2.524.38.714-.524.952-.095 1-1.095l.095-1.952c-1.095-.095-2.286.143-3.2.8-.43.333-1.333 1.43-.43 1.857" stroke-width=".3" fill="#f6d2a2"/><path d="M15.38 14.095c-6.476-1.8-1.667-10.048 3.524-6.667l-3.524 6.667zM44.095 6.8c5.095-3.57 9.762 4.524 3.8 6.57l-3.8-6.57z" stroke-width=".4" fill="#6ad7e5"/><path d="M45.238 55c1.286.8 3.667 3.238 1.714 4.43-1.857 1.714-2.905-1.905-4.57-2.38.714-.952 1.62-1.857 2.857-2.048M22 57.762c-1.524.238-2.38 1.62-3.667 2.333-1.2.714-1.667-.238-1.762-.43-.2-.095-.2.095-.476-.2-1.095-1.75 1.143-3.035 2.335-3.895 1.667-.38 2.714 1.048 3.57 2.2" stroke-width=".3" fill="#f6d2a2"/></g><path d="M15.667 11.857C14.8 11.43 14.2 10.8 14.714 9.8c.476-.905 1.38-.8 2.238-.38l-1.286 2.43zM46.57 11c.857-.43 1.476-1.048.952-2.048-.476-.905-1.38-.8-2.238-.38L46.57 11z" fill="#000"/><g stroke="#000"><path d="M52.43 34c-.095 1.667-1.762.905-2.524.38-.714-.524-.952-.095-1-1.095l-.095-1.952c1.095-.095 2.286.143 3.2.8.476.38 1.333 1.43.43 1.857" stroke-width=".3" fill="#f6d2a2"/><path d="M31.333 3.43c6.476 0 12.524.905 15.714 7.143 2.857 6.952 1.8 14.476 2.286 21.857.38 6.333 1.2 13.62-1.714 19.476-3.095 6.143-10.8 7.714-17.143 7.476-5-.2-11-1.8-13.857-6.38-3.286-5.333-1.762-13.286-1.524-19.238.286-7.048-1.905-14.143.43-21 2.333-7.2 8.8-8.8 15.8-9.333" stroke-width=".5" fill="#6ad7e5"/><path d="M32.476 12.095c1.143 6.762 12.2 4.952 10.62-1.857-1.43-6.095-11-4.38-10.62 1.857m-13.2 1.105c1.524 5.857 10.905 4.38 10.57-1.524C29.43 4.62 17.8 5.952 19.286 13.2m14.514 7c0 .857.2 1.857.048 2.8-.238.43-.667.476-1.048.62-.524-.095-.952-.43-1.2-.905-.143-1.048.048-2.095.095-3.143l2.095.62z" stroke-width=".3" fill="#fff"/></g><path d="M23.476 12.238c0 .952-.714 1.714-1.57 1.714s-1.57-.762-1.57-1.714.714-1.714 1.57-1.714 1.57.762 1.57 1.714" fill="#000"/><path d="M22.952 12.62c0 .238-.2.43-.38.43s-.38-.2-.38-.43.2-.43.38-.43c.238 0 .38.2.38.43" fill="#fff"/><path d="M36.762 11.8c0 .952-.714 1.714-1.57 1.714s-1.57-.762-1.57-1.714.714-1.714 1.57-1.714 1.57.762 1.57 1.714" fill="#000"/><g fill="#fff"><path d="M36.286 12.2c0 .238-.143.43-.38.43-.2 0-.38-.2-.38-.43s.143-.43.38-.43c.2 0 .38.2.38.43"/><path d="M29.238 20.095c-.714 1.667.38 5.048 2.286 2.57-.143-1.048.048-2.095.095-3.143l-2.38.57z" stroke-width=".3" stroke="#000"/></g><path d="M29.476 16.857c-1.286.095-2.333 1.667-1.667 2.857.905 1.62 2.857-.143 4.095 0 1.43.048 2.57 1.524 3.714.286 1.286-1.38-.57-2.714-1.952-3.333l-4.2.2z" stroke="#000" stroke-width=".6" fill="#f6d2a2"/><path d="M29.333 16.8c-.095-2.238 4.2-2.524 4.667-.667.524 1.905-4.476 2.333-4.667.667" fill="#000"/><path fill="#c6b198" d="M11.476 34.238c.238-.095.524-.143.667-.38"/><path d="M11.476 34.38c-.048 0-.143-.048-.143-.095-.048-.095 0-.2.095-.2.048 0 .095-.048.095-.048.2-.095.38-.143.476-.286.048-.048.143-.095.238-.048.048.048.095.143.048.238-.2.238-.43.333-.62.38l-.095.048h-.095z" fill="#000"/><path fill="#c6b198" d="M52.43 34c-.238-.095-.524-.143-.667-.38"/><path d="M46.952 59.57c-.048 0-.095-.048-.143-.095-.095-.2-.2-.43-.238-.62-.143-.38-.286-.762-.57-1.048-.048-.048-.048-.143 0-.238.048-.048.143-.048.238 0 .333.333.524.762.667 1.2l.238.57c.048.095 0 .2-.048.238h-.143zm-30.382.23c-.095 0-.2-.095-.143-.2.048-.476.286-.8.524-1.2.143-.2.238-.38.333-.57.048-.095.143-.095.2-.095.095.048.095.143.095.2-.095.238-.238.43-.38.62-.238.333-.43.62-.476 1 0 .2-.048.238-.143.238h0zm35.86-25.6h-.048l-.095-.048c-.238-.095-.476-.143-.62-.38-.048-.048-.048-.2.048-.238.048-.048.2-.048.238.048.095.143.286.2.476.286.048 0 .095.048.095.048.095.048.143.143.095.2s-.143.095-.2.095h0zM31.57 59.57h-1.2c-1.952-.048-4.905-.38-7.8-1.57-2.8-1.143-4.857-2.762-6.2-4.905-2.667-4.333-2.2-10.286-1.762-15.57l.238-3.762c.095-2.476-.095-5.048-.333-7.476-.38-4.476-.762-9.095.714-13.57C16.38 9.38 18.43 7 21.524 5.476c2.43-1.2 5.43-1.857 9.714-2.2 6.38-.048 12.714.857 15.905 7.2 2.095 5.095 2.095 10.57 2.143 15.857 0 2 0 4.048.143 6.048.048.62.095 1.238.095 1.857.38 5.8.8 12.38-1.857 17.714-1.333 2.714-3.667 4.714-6.857 6-2.57 1.048-5.8 1.62-9.238 1.62h0zm-.238-56c-6.714.524-13.286 2-15.714 9.238-1.476 4.43-1.095 9-.714 13.43.2 2.476.43 5 .333 7.524-.048 1.2-.143 2.43-.238 3.762-.43 5.238-.905 11.143 1.714 15.38 1.095 1.762 4.62 5.952 13.714 6.286h1.2c10.524 0 14.43-4.667 15.857-7.43 2.62-5.238 2.2-11.8 1.857-17.57-.048-.62-.095-1.238-.095-1.857a128.47 128.47 0 0 1-.143-6.048c-.048-5.238-.048-10.714-2.095-15.762-1.43-2.8-3.57-4.714-6.524-5.8-3.048-1-6.476-1.143-9.143-1.143h0z" fill="#000"/></svg>