<svg xmlns="http://www.w3.org/2000/svg" width="64" height="64" fill-rule="evenodd" xmlns:v="https://vecta.io/nano"><rect fill="#f9db3d" x="7" y="7" width="50" height="50" rx="4"/><path d="M35.406 46.132V35.374h-3.454v10.604l-.033.87c-.022.3-.088.58-.198.836a1.39 1.39 0 0 1-.539.627c-.25.16-.6.242-1.056.242-.41 0-.744-.066-1-.198s-.458-.312-.605-.54-.25-.502-.308-.825-.088-.675-.088-1.056v-.704H25v1.364c0 .865.147 1.602.44 2.21a4.25 4.25 0 0 0 1.166 1.496c.484.39 1.034.675 1.65.858s1.254.275 1.914.275c1.173 0 2.105-.18 2.794-.54s1.217-.807 1.584-1.342.6-1.11.704-1.727.154-1.18.154-1.694h0zm5.4-.264h-3.344c-.015.968.16 1.804.528 2.508s.862 1.283 1.485 1.738 1.342.788 2.156 1 1.654.32 2.52.32c1.07 0 2.013-.125 2.827-.374s1.496-.598 2.046-1.045a4.35 4.35 0 0 0 1.243-1.595 4.8 4.8 0 0 0 .418-2.002c0-.88-.187-1.602-.56-2.167s-.818-1.016-1.33-1.353a5.85 5.85 0 0 0-1.551-.737l-1.22-.32-2.387-.616c-.61-.16-1.085-.323-1.43-.484s-.576-.337-.693-.528-.176-.44-.176-.748c0-.337.073-.616.22-.836a1.91 1.91 0 0 1 .561-.55c.227-.147.48-.25.76-.308a4.05 4.05 0 0 1 .836-.088 5.89 5.89 0 0 1 1.177.11c.36.073.678.198.957.374s.502.418.67.726.268.697.297 1.166h3.344c0-.91-.172-1.683-.517-2.32s-.8-1.162-1.397-1.573-1.258-.708-2.013-.89S44.675 35 43.854 35a8.05 8.05 0 0 0-2.112.286c-.704.19-1.335.484-1.892.88s-1.008.89-1.353 1.485-.517 1.294-.517 2.1c0 .72.136 1.33.407 1.837s.627.928 1.067 1.265.94.612 1.496.825a15.04 15.04 0 0 0 1.716.539l1.694.44a10.65 10.65 0 0 1 1.496.462c.44.176.796.396 1.067.66s.407.61.407 1.034c0 .396-.103.722-.308.98a2.16 2.16 0 0 1-.77.605c-.308.147-.638.246-1 .297a6.88 6.88 0 0 1-.99.077 5.25 5.25 0 0 1-1.32-.165c-.425-.1-.796-.28-1.11-.506a2.5 2.5 0 0 1-.759-.891c-.19-.367-.286-.814-.286-1.342h0z" fill="#3a3c3e"/></svg>