<svg xmlns="http://www.w3.org/2000/svg" width="64" height="64" xmlns:v="https://vecta.io/nano"><path d="M5.8 16.575c-5.312 7.635-4.65 17.57-.593 25.682.096.195.197.386.297.577l.2.366.118.2.21.38.387.664.22.364.45.703.192.296c.21.315.428.63.65.94l.02.024.1.148c.193.266.392.53.593.79L8.88 48l.548.674.2.25c.25.294.504.586.764.873l.016.016.03.033c.254.277.513.548.776.818l.25.25.62.608.254.24a31.39 31.39 0 0 0 .85.774l.013.01.148.126.772.652.32.255.643.503.344.262.722.518.335.238c.23.158.466.31.7.464l.303.202 1.098.672.303.17.824.462c.15.08.304.157.456.235l.6.306.136.066.24.117.934.432.197.09a32.23 32.23 0 0 0 1.09.453l.265.105 1.028.38.13.045c.38.132.76.255 1.147.375l.277.083c.392.118.78.26 1.184.334 25.69 4.685 33.153-15.438 33.153-15.438-6.268 8.165-17.393 10.32-27.934 7.92-.4-.1-.787-.215-1.176-.33l-.293-.09a34.92 34.92 0 0 1-1.133-.368l-.156-.056c-.336-.118-.668-.243-1-.37l-.28-.1a31.55 31.55 0 0 1-1.078-.448l-.215-.095-.9-.423-.263-.126c-.236-.115-.47-.237-.704-.358l-.47-.246a28.22 28.22 0 0 1-.843-.473l-.285-.16a39.12 39.12 0 0 1-1.098-.673l-.296-.197-.782-.52-.25-.177-.74-.534-.327-.248-.667-.52-.297-.238-.92-.776a40.2 40.2 0 0 1-.873-.793l-.246-.236-.627-.615-.246-.245c-.262-.268-.518-.54-.77-.814l-.038-.04a32.46 32.46 0 0 1-.781-.888l-.204-.243-.562-.695-.206-.256-.65-.864C7.382 31.365 5.28 20.356 9.956 11.314M22.3 10.142c-3.842 5.528-3.633 12.93-.636 18.776.502.98 1.067 1.93 1.7 2.836.576.825 1.214 1.807 1.978 2.47.277.305.566.603.862.895l.227.224c.287.278.578.552.88.818l.036.03.01.01a26.62 26.62 0 0 0 1.028.851l.234.182c.35.27.71.533 1.076.786l.03.024c.162.112.327.216.49.324l.233.154c.262.168.527.332.797.49l.113.066.705.394.25.13.493.255.075.034c.34.167.68.328 1.03.48l.227.093a24.88 24.88 0 0 0 .843.342l.36.132c.257.095.514.182.774.27l.35.112c.37.115.735.26 1.12.324C57.42 44.926 62 29.654 62 29.654c-4.128 5.945-12.122 8.782-20.653 6.567-.38-.1-.752-.208-1.124-.325l-.338-.11a21.88 21.88 0 0 1-.786-.271l-.354-.132c-.285-.1-.566-.223-.846-.34l-.228-.096a22.99 22.99 0 0 1-1.035-.481c-.175-.085-.347-.175-.52-.264l-.3-.154c-.22-.12-.44-.244-.656-.37l-.157-.09c-.27-.157-.533-.318-.795-.486l-.24-.16-.515-.34c-.366-.252-.722-.516-1.072-.784l-.24-.2c-3.734-2.948-6.694-6.977-8.1-11.546-1.475-4.738-1.157-10.056 1.398-14.372m10.73-.373c-2.265 3.333-2.487 7.472-.916 11.153 1.657 3.908 5.053 6.972 9.016 8.426.163.06.327.114.492.17l.217.07c.234.073.465.158.707.204C56.64 27.476 59.6 19.74 60.4 18.6c-2.602 3.747-6.975 4.646-12.34 3.344-.424-.103-.9-.256-1.298-.4a16.01 16.01 0 0 1-1.542-.64 16 16 0 0 1-2.703-1.649C37.715 15.6 34.732 8.66 37.865 3" fill="#0868ac" fill-rule="evenodd"/></svg>