<svg xmlns="http://www.w3.org/2000/svg" width="64" height="64" fill="none" fill-rule="evenodd" xmlns:v="https://vecta.io/nano"><rect fill="#a3a18f" x="9" y="9" width="50" height="50" rx="4"/><rect fill="#eae2c0" x="5" y="5" width="50" height="50" rx="4"/><path d="M18.6 26h-1.696l-2.432-5.072-.816.4-.656-1.44 2.368-1.088 2.064 4.368L20.12 10h1.856L18.6 26zM14 45.578L17.632 36h1.547L23 45.578h-9zm4.386-7.816L16.06 44.18h4.816l-2.5-6.417zm31.39 3.638a4.07 4.07 0 0 1-.218 1.349c-.146.418-.358.785-.636 1.102a2.93 2.93 0 0 1-1.007.741c-.393.177-.842.266-1.35.266-.393 0-.76-.06-1.102-.18a4.37 4.37 0 0 1-.96-.475c-.298-.196-.58-.42-.846-.674l-.76-.798-.788.798c-.26.253-.532.478-.817.674a3.77 3.77 0 0 1-.931.465 3.44 3.44 0 0 1-1.111.171 3.33 3.33 0 0 1-1.349-.266c-.405-.177-.747-.418-1.026-.722a3.2 3.2 0 0 1-.646-1.083C36.076 42.35 36 41.9 36 41.42c0-.47.073-.912.218-1.33a3.16 3.16 0 0 1 .627-1.083 2.95 2.95 0 0 1 .998-.722c.393-.177.836-.266 1.33-.266a3.34 3.34 0 0 1 1.149.19 4.14 4.14 0 0 1 .969.503 5.68 5.68 0 0 1 .836.722l.77.846.75-.846a6.07 6.07 0 0 1 .836-.731 3.95 3.95 0 0 1 .97-.513c.35-.127.725-.2 1.13-.2a3.22 3.22 0 0 1 1.33.266c.393.176.728.418 1.007.722a3.08 3.08 0 0 1 .636 1.083c.146.418.218.86.218 1.33h0zm-1.7.057c0-.456-.133-.842-.4-1.16s-.64-.475-1.12-.475c-.253 0-.497.054-.732.162a3.87 3.87 0 0 0-.684.408 5.74 5.74 0 0 0-.627.54l-.523.54.532.56c.2.184.396.348.617.494a3.59 3.59 0 0 0 .703.36c.247.094.503.142.77.142.47 0 .83-.152 1.083-.456s.38-.678.38-1.12h0zm-6.27.02l-.532-.532c-.203-.2-.418-.367-.646-.532a3.83 3.83 0 0 0-.712-.408 1.82 1.82 0 0 0-.731-.161c-.443 0-.798.16-1.064.484s-.4.7-.4 1.13c0 .47.136.845.408 1.13s.643.427 1.1.427a1.96 1.96 0 0 0 .722-.142 3.81 3.81 0 0 0 .694-.36c.222-.145.43-.3.627-.494a6.86 6.86 0 0 0 .523-.542h0zm5.53-25.617l-3.838 1.743c.186.85.278 1.5.278 1.978 0 .45-.093 1.128-.278 2.036l3.853 1.743-.6 1.362-3.735-1.64c-.342.732-.757 1.406-1.245 2.02l-1.157-.908a11.26 11.26 0 0 0 1.025-1.685L35 19.566l6.636-2.915a11.84 11.84 0 0 0-1.113-1.772L41.7 14c.4.47.83 1.147 1.3 2.036l3.706-1.6.63 1.436zm-5.2 2.33l-3.18 1.392 3.164 1.406c.088-.615.132-1.1.132-1.45 0-.322-.04-.77-.117-1.348h0z" fill="#394146"/><g stroke="#a3a18f" stroke-width="2" stroke-linecap="round" stroke-linejoin="round"><path d="M30 16v28"/><path d="M16 30h28"/></g></svg>