<svg xmlns="http://www.w3.org/2000/svg" width="64" height="64" xmlns:v="https://vecta.io/nano"><defs><linearGradient x1="-3.26612863%" y1="3.84616971%" x2="71.3197234%" y2="67.9629715%" id="A"><stop stop-color="#5a9fd4" offset="0%"/><stop stop-color="#306998" offset="100%"/></linearGradient><linearGradient x1="65.1442416%" y1="71.7284164%" x2="38.564777%" y2="34.3655473%" id="B"><stop stop-color="#ffd43b" offset="0%"/><stop stop-color="#ffe873" offset="100%"/></linearGradient><radialGradient cx="49.7986643%" cy="48.5722746%" fx="49.7986643%" fy="48.5722746%" r="40.4076576%" id="C"><stop stop-color="#b8b8b8" stop-opacity=".498" offset="0%"/><stop stop-color="#7f7f7f" stop-opacity="0" offset="100%"/></radialGradient></defs><g fill-rule="evenodd"><path d="M31.472 2.47c-2 .01-3.93.18-5.62.48-4.976.88-5.88 2.72-5.88 6.113v4.48h11.76v1.494H15.56c-3.417 0-6.4 2.054-7.346 5.962-1.08 4.48-1.128 7.274 0 11.95.836 3.48 2.832 5.96 6.25 5.96h4.043V33.54c0-3.88 3.358-7.305 7.346-7.305H37.6c3.27 0 5.88-2.692 5.88-5.975V9.063c0-3.187-2.69-5.58-5.88-6.113a36.73 36.73 0 0 0-6.127-.48h0zm-6.36 3.604c1.214 0 2.207 1.008 2.207 2.248 0 1.235-.992 2.233-2.207 2.233s-2.206-1-2.206-2.233c0-1.24.987-2.248 2.206-2.248h0z" fill="url(#A)"/><path d="M44.944 15.038v5.222c0 4.048-3.432 7.455-7.346 7.455H25.853c-3.217 0-5.88 2.754-5.88 5.976v11.198c0 3.186 2.77 5.06 5.88 5.975 3.722 1.094 7.29 1.292 11.745 0 2.96-.858 5.88-2.582 5.88-5.975v-4.482H31.732v-1.494h17.625c3.417 0 4.69-2.383 5.88-5.96 1.228-3.683 1.175-7.226 0-11.95-.845-3.402-2.458-5.962-5.88-5.962h-4.413 0zm-6.606 28.356c1.22 0 2.207 1 2.207 2.234s-.988 2.247-2.207 2.247-2.206-1.008-2.206-2.247.992-2.234 2.206-2.234h0z" fill="url(#B)"/><path d="M47.623 58.475c0 1.687-7.055 3.055-15.758 3.055s-15.758-1.368-15.758-3.055 7.055-3.056 15.758-3.056 15.758 1.368 15.758 3.056h0z" opacity=".444" fill="url(#C)"/></g></svg>