<svg xmlns="http://www.w3.org/2000/svg" width="64" height="64" fill="#61dafb" fill-rule="evenodd" xmlns:v="https://vecta.io/nano"><circle cx="32" cy="31.667" r="5.429"/><path d="M52.62 22.714l-3.286-1.095.714-3.38c1-6.286-.095-10.714-3.143-12.43C46 5.286 45 5.048 43.857 5.048c-3.333 0-7.57 2.476-11.857 6.62-4.286-4.143-8.524-6.62-11.857-6.62-1.143 0-2.143.238-3.048.762-3.048 1.762-4.143 6.2-3.143 12.43.2 1.095.43 2.238.714 3.38-1.143.333-2.238.667-3.286 1.095C5.43 25 2.2 28.143 2.2 31.667s3.286 6.667 9.2 8.952c1.048.38 2.143.762 3.286 1.095-.286 1.143-.524 2.286-.714 3.38-1 6.286.095 10.714 3.143 12.43.905.524 1.905.762 3.048.762 3.38 0 7.62-2.476 11.857-6.62 4.286 4.143 8.524 6.62 11.857 6.62 1.143 0 2.143-.238 3.048-.762 3.048-1.762 4.143-6.2 3.143-12.43-.2-1.095-.43-2.238-.714-3.38 1.143-.333 2.238-.667 3.286-1.095 5.952-2.286 9.2-5.43 9.2-8.952S58.57 25 52.62 22.714h0zM45.57 8.2c1.952 1.143 2.62 4.667 1.8 9.667-.143 1-.38 2.048-.667 3.143-2.476-.57-5.095-.952-7.857-1.2-1.62-2.286-3.286-4.333-4.952-6.2 3.524-3.476 7.095-5.857 10-5.857.62 0 1.2.143 1.667.43h0zM40.238 36.43c-.857 1.524-1.857 3.048-2.905 4.57-1.762.143-3.524.2-5.333.2-1.857 0-3.62-.048-5.333-.2a59.99 59.99 0 0 1-2.857-4.571 76.72 76.72 0 0 1-2.524-4.762 76.72 76.72 0 0 1 2.524-4.762c.857-1.524 1.857-3.048 2.905-4.57 1.762-.143 3.524-.2 5.333-.2 1.857 0 3.62.048 5.333.2a59.99 59.99 0 0 1 2.857 4.571 76.72 76.72 0 0 1 2.524 4.762l-2.524 4.762zm3.952-1.57c.714 1.667 1.286 3.286 1.8 4.905-1.62.38-3.333.667-5.143.905.57-.905 1.2-1.857 1.714-2.857.57-1 1.095-2 1.62-2.952h0zM32 47.762c-1.143-1.238-2.238-2.57-3.286-3.952l3.286.095c1.095 0 2.2-.048 3.286-.095-1.048 1.38-2.143 2.714-3.286 3.952h0zm-8.857-7.143c-1.8-.238-3.524-.524-5.143-.905.524-1.57 1.095-3.238 1.8-4.905.524.952 1.048 1.952 1.62 2.905.57 1.048 1.143 1.952 1.714 2.905h0zM19.8 28.476C19.095 26.8 18.524 25.2 18 23.57c1.62-.38 3.333-.667 5.143-.905-.57.905-1.2 1.857-1.714 2.857-.57 1-1.095 2-1.62 2.952h0zM32 15.57c1.143 1.238 2.238 2.57 3.286 3.952-1.095-.048-2.2-.095-3.286-.095s-2.2.048-3.286.095c1.048-1.38 2.143-2.714 3.286-3.952h0zm10.57 10l-1.714-2.857c1.8.238 3.524.524 5.143.905-.524 1.57-1.095 3.238-1.8 4.905-.524-1-1.048-2-1.62-2.952h0zM16.62 17.857c-.8-5-.143-8.524 1.8-9.667.476-.286 1.048-.43 1.667-.43 2.857 0 6.43 2.333 10 5.857-1.667 1.8-3.333 3.905-4.952 6.2-2.762.238-5.38.667-7.857 1.2-.286-1.095-.476-2.143-.667-3.143h0zm-11.762 13.8c0-2.238 2.714-4.62 7.476-6.38.952-.38 2-.714 3.048-1a69.41 69.41 0 0 0 2.857 7.429c-1.143 2.524-2.143 5-2.857 7.38C8.8 37.2 4.857 34.333 4.857 31.667h0zm13.57 23.476c-1.952-1.143-2.62-4.667-1.8-9.667.143-1 .38-2.048.667-3.143 2.476.57 5.095.952 7.857 1.2 1.62 2.286 3.286 4.333 4.952 6.2-3.524 3.476-7.095 5.857-10 5.857-.62 0-1.2-.143-1.667-.43h0zm28.952-9.667c.8 5 .143 8.524-1.8 9.667-.476.286-1.048.43-1.667.43-2.857 0-6.43-2.333-10-5.857 1.667-1.8 3.333-3.905 4.952-6.2 2.762-.238 5.38-.667 7.857-1.2.286 1.095.476 2.143.667 3.143h0zm4.286-7.43c-.952.38-2 .714-3.048 1a69.41 69.41 0 0 0-2.857-7.429c1.143-2.524 2.143-5 2.857-7.38 6.57 1.905 10.524 4.762 10.524 7.43 0 2.238-2.762 4.62-7.476 6.38h0z"/></svg>