<svg xmlns="http://www.w3.org/2000/svg" width="64" height="64" fill="none" fill-rule="evenodd" xmlns:v="https://vecta.io/nano"><path d="M52 50c5.606-.506 10-5.262 10-11 0-5.77-4.446-10.494-10.098-10.954C50.918 17.918 42.386 10 32 10c-9.024 0-16.646 5.98-19.136 14.2C6.702 25.212 2 30.55 2 37c0 6.842 5.3 12.488 12 13h38z" fill="#e1effc"/><g stroke="#0096ff" stroke-width="2" stroke-linecap="round" stroke-linejoin="round"><path d="M32.1 25v7L26 36.888"/><path d="M32 32l6.076 4.86"/></g><path d="M28 21a4 4 0 1 1 8 0 4 4 0 1 1-8 0h0zM18 40a4 4 0 1 1 8 0 4 4 0 1 1-8 0h0zm20 0a4 4 0 1 1 8 0 4 4 0 1 1-8 0h0z" stroke-width="2" stroke-linejoin="round" stroke="#394146" fill="#fff"/></svg>