<svg xmlns="http://www.w3.org/2000/svg" xmlns:xlink="http://www.w3.org/1999/xlink" width="64" height="64" xmlns:v="https://vecta.io/nano"><g fill-rule="evenodd"><path d="M33.726 2.996l22.548 13.008c.953.55 1.726 1.894 1.726 2.987v26.017c0 1.1-.778 2.44-1.726 2.987L33.726 61.004c-.953.55-2.504.547-3.452 0L7.726 47.996C6.773 47.446 6 46.102 6 45.008V18.992c0-1.1.778-2.44 1.726-2.987L30.274 2.996c.953-.55 2.504-.547 3.452 0z" fill="#378ee6"/><use xlink:href="#B" opacity=".8" fill="#85ccff"/><use xlink:href="#B" y="-5" opacity=".8" fill="#f2faff"/><use xlink:href="#B" y="-10" opacity=".96" fill="#fff"/><path d="M26.442 40.328c-.16-.232-.374-.402-.642-.5a2.24 2.24 0 0 0-.846-.162c-.176 0-.346.02-.5.06s-.312.104-.444.192-.238.202-.318.342-.12.306-.12.498c0 .288.1.508.3.66a2.95 2.95 0 0 0 .744.396l.972.324a3.95 3.95 0 0 1 .972.432c.296.184.544.428.744.732s.3.708.3 1.212c0 .456-.084.854-.252 1.194s-.394.622-.678.846a2.93 2.93 0 0 1-.99.504 4.14 4.14 0 0 1-1.188.168c-.528 0-1.036-.088-1.524-.264s-.908-.472-1.26-.888l1.14-1.104c.184.28.426.498.726.654a2.04 2.04 0 0 0 .954.234 2 2 0 0 0 .528-.072c.176-.048.336-.12.48-.216s.26-.218.348-.366a.98.98 0 0 0 .132-.51c0-.312-.1-.552-.3-.72a2.65 2.65 0 0 0-.744-.426l-.972-.33c-.352-.104-.676-.246-.972-.426s-.544-.42-.744-.72-.3-.702-.3-1.206c0-.44.1-.82.27-1.14a2.47 2.47 0 0 1 .708-.798 3.09 3.09 0 0 1 1.002-.474 4.3 4.3 0 0 1 1.152-.156 4.2 4.2 0 0 1 1.302.204c.42.136.798.36 1.134.672l-1.104 1.164zM38.286 47h-4.944c-.664 0-1.278-.102-1.842-.306s-1.052-.496-1.464-.876a4.04 4.04 0 0 1-.972-1.392c-.236-.548-.354-1.166-.354-1.854 0-.624.118-1.198.354-1.722s.558-.976.966-1.356a4.45 4.45 0 0 1 1.422-.888 4.67 4.67 0 0 1 1.722-.318 4.67 4.67 0 0 1 1.722.318 4.45 4.45 0 0 1 1.422.888c.408.38.73.832.966 1.356s.354 1.098.354 1.722c0 .448-.054.842-.162 1.182s-.25.64-.426.9a3.1 3.1 0 0 1-.582.654c-.212.176-.418.324-.618.444v.024h2.436V47zm-5.148-7.344c-.408 0-.786.074-1.134.222s-.648.354-.9.618-.45.576-.594.936-.216.752-.216 1.176c0 .432.072.834.216 1.206s.344.692.6.96.558.478.906.63.73.228 1.146.228.802-.076 1.158-.228.662-.362.918-.63.456-.588.6-.96.216-.774.216-1.206c0-.424-.072-.816-.216-1.176s-.344-.672-.6-.936-.562-.47-.918-.618a3.05 3.05 0 0 0-1.182-.222h0zm6.252-1.152h1.512v7.128h3.612V47H39.4v-8.496z" fill="#f7fafe"/></g><defs ><path id="B" d="M45 30c0 2.31-6.072 4-13 4s-13-1.69-13-4 6.072-4 13-4 13 1.69 13 4h0z"/></defs></svg>