<svg xmlns="http://www.w3.org/2000/svg" width="64" height="64" fill-rule="evenodd" xmlns:v="https://vecta.io/nano"><path d="M6.007 2h51.987A4.01 4.01 0 0 1 62 6.007v51.987A4.01 4.01 0 0 1 57.993 62H6.007A4.01 4.01 0 0 1 2 57.993V6.007A4.01 4.01 0 0 1 6.007 2z" stroke="#d1d3d4" stroke-width=".5" fill="#fcfcfc"/><path d="M8.434 26.53V37h7.303v-.85H9.43v-4.136h5.837v-.85H9.43V27.38h6.233v-.85h-7.23zm10.588 6.54L16.1 37h1.144l2.332-3.182L21.94 37h1.173l-2.948-3.945 2.728-3.622h-1.16l-2.112 2.874-2.156-2.874H16.3l2.713 3.637zm4.986-3.637v10.354h.924v-4.224h.03c.098.274.237.513.418.72s.39.376.623.513a2.9 2.9 0 0 0 .763.308c.274.068.548.103.82.103.577 0 1.078-.105 1.503-.315a3.01 3.01 0 0 0 1.063-.865c.284-.367.494-.792.63-1.276s.205-.995.205-1.533-.068-1.05-.205-1.533-.347-.91-.63-1.276-.638-.657-1.063-.873-.926-.323-1.503-.323a3.16 3.16 0 0 0-1.65.433c-.484.288-.833.697-1.05 1.225h-.03v-1.437h-.85zm6.057 3.784a4.97 4.97 0 0 1-.139 1.166c-.093.386-.24.73-.44 1.034s-.457.55-.77.74-.69.286-1.13.286c-.49 0-.902-.095-1.24-.286a2.45 2.45 0 0 1-.821-.741c-.2-.303-.362-.648-.455-1.034a4.97 4.97 0 0 1-.139-1.166c0-.43.042-.84.125-1.232s.227-.733.433-1.027a2.22 2.22 0 0 1 .821-.704c.342-.176.767-.264 1.276-.264.44 0 .816.095 1.13.286s.57.438.77.74.347.648.44 1.034a4.97 4.97 0 0 1 .139 1.166h0zm2.36-3.784V37h.924v-4.033c0-.4.068-.77.205-1.107s.33-.628.58-.873.545-.433.887-.565.723-.188 1.144-.17v-.924c-.684-.03-1.273.122-1.767.455s-.858.807-1.093 1.423h-.03v-1.775h-.85zm9.796 3.256h-4.898a4.24 4.24 0 0 1 .242-1.005c.122-.328.286-.616.49-.865a2.36 2.36 0 0 1 .748-.601c.293-.152.63-.227 1.012-.227a2.14 2.14 0 0 1 .997.227 2.36 2.36 0 0 1 .748.601 2.77 2.77 0 0 1 .477.858 3.34 3.34 0 0 1 .183 1.012h0zm-4.898.777h5.822c.02-.528-.03-1.05-.147-1.562a3.98 3.98 0 0 0-.579-1.364c-.27-.396-.618-.716-1.05-.96s-.948-.367-1.555-.367c-.596 0-1.112.115-1.547.345s-.79.533-1.063.91-.477.804-.61 1.283-.198.968-.198 1.467a5.8 5.8 0 0 0 .198 1.533c.132.484.335.91.61 1.276s.628.655 1.063.865.95.315 1.547.315c.958 0 1.7-.235 2.222-.704s.882-1.134 1.078-1.994h-.924c-.147.587-.41 1.056-.792 1.408s-.91.528-1.584.528c-.44 0-.816-.093-1.13-.28a2.56 2.56 0 0 1-.777-.704 2.84 2.84 0 0 1-.447-.961 4.1 4.1 0 0 1-.139-1.034h0zm11.6-1.818h.924c-.02-.41-.103-.767-.25-1.07s-.345-.557-.594-.763-.538-.357-.865-.455-.682-.147-1.063-.147c-.332 0-.667.04-1.005.117s-.643.2-.917.367-.496.386-.667.66-.257.6-.257.983c0 .323.054.594.16.814a1.6 1.6 0 0 0 .447.557c.19.152.413.28.667.38s.533.193.836.27l1.188.264.61.176c.2.068.38.154.535.257a1.21 1.21 0 0 1 .374.381c.093.152.14.34.14.565 0 .264-.066.486-.198.667a1.6 1.6 0 0 1-.506.447c-.205.117-.428.2-.667.25a3.48 3.48 0 0 1-.697.073c-.616 0-1.132-.16-1.547-.477s-.643-.79-.682-1.415h-.924c.078.93.394 1.603.946 2.024s1.273.63 2.163.63c.352 0 .71-.04 1.07-.117a3.02 3.02 0 0 0 .975-.389c.288-.18.526-.416.71-.704s.28-.638.28-1.05c0-.332-.064-.62-.19-.865a1.97 1.97 0 0 0-.491-.616 2.53 2.53 0 0 0-.689-.403 3.53 3.53 0 0 0-.785-.213l-1.232-.28-.513-.154c-.186-.064-.357-.144-.513-.242a1.37 1.37 0 0 1-.389-.359c-.103-.142-.154-.315-.154-.52 0-.244.054-.45.16-.616s.25-.3.425-.403.37-.176.58-.22.418-.066.623-.066a2.85 2.85 0 0 1 .748.095 1.8 1.8 0 0 1 .623.301 1.5 1.5 0 0 1 .433.521 1.74 1.74 0 0 1 .176.741h0zm7.054 0h.924c-.02-.41-.103-.767-.25-1.07s-.345-.557-.594-.763-.538-.357-.865-.455-.682-.147-1.063-.147c-.332 0-.667.04-1.005.117s-.643.2-.917.367-.496.386-.667.66-.257.6-.257.983c0 .323.054.594.16.814a1.6 1.6 0 0 0 .447.557c.19.152.413.28.667.38s.533.193.836.27l1.188.264.61.176c.2.068.38.154.535.257a1.21 1.21 0 0 1 .374.381c.093.152.14.34.14.565 0 .264-.066.486-.198.667a1.6 1.6 0 0 1-.506.447c-.205.117-.428.2-.667.25a3.48 3.48 0 0 1-.697.073c-.616 0-1.132-.16-1.547-.477s-.643-.79-.682-1.415h-.924c.078.93.394 1.603.946 2.024s1.273.63 2.163.63c.352 0 .71-.04 1.07-.117a3.02 3.02 0 0 0 .975-.389c.288-.18.526-.416.71-.704s.28-.638.28-1.05c0-.332-.064-.62-.19-.865a1.97 1.97 0 0 0-.491-.616 2.53 2.53 0 0 0-.689-.403 3.53 3.53 0 0 0-.785-.213l-1.232-.28-.513-.154c-.186-.064-.357-.144-.513-.242a1.37 1.37 0 0 1-.389-.359c-.103-.142-.154-.315-.154-.52 0-.244.054-.45.16-.616s.25-.3.425-.403.37-.176.58-.22S53.794 30 54 30a2.85 2.85 0 0 1 .748.095 1.8 1.8 0 0 1 .623.301 1.5 1.5 0 0 1 .433.521 1.74 1.74 0 0 1 .176.741h0z" fill="#444"/></svg>