<svg xmlns="http://www.w3.org/2000/svg" width="64" height="64" xmlns:v="https://vecta.io/nano"><path d="M31.255 59.712c-.732 0-1.462-.19-2.102-.562l-6.694-3.96c-1-.56-.51-.757-.182-.872 1.334-.462 1.604-.57 3.027-1.377.148-.083.345-.05.498.038l5.143 3.054a.66.66 0 0 0 .621 0l20.05-11.572c.186-.107.306-.322.306-.543v-23.14a.65.65 0 0 0-.311-.553L31.568 8.663a.63.63 0 0 0-.617 0L10.914 20.23c-.195.112-.318.33-.318.55v23.14c0 .22.123.43.316.536l5.492 3.174c2.98 1.49 4.805-.265 4.805-2.028V22.752c0-.323.26-.578.583-.578h2.542a.58.58 0 0 1 .581.578v22.845c0 3.977-2.166 6.26-5.937 6.26-1.16 0-2.07 0-4.618-1.255l-5.258-3.027C7.804 46.823 7 45.42 7 43.917v-23.14c0-1.503.804-2.907 2.103-3.654l20.05-11.586c1.268-.718 2.955-.718 4.214 0l20.047 11.586a4.23 4.23 0 0 1 2.106 3.654v23.14c0 1.503-.807 2.902-2.106 3.657L33.367 59.15a4.21 4.21 0 0 1-2.112.562h0zm16.19-22.81c0-4.33-2.927-5.484-9.09-6.298-6.226-.824-6.86-1.25-6.86-2.707 0-1.203.536-2.8 5.148-2.8 4.12 0 5.637.887 6.26 3.664.055.26.293.452.563.452h2.602a.59.59 0 0 0 .425-.185c.1-.123.168-.28.153-.446-.403-4.783-3.58-7.012-10.004-7.012-5.717 0-9.127 2.412-9.127 6.458 0 4.39 3.393 5.6 8.88 6.144 6.564.642 7.073 1.6 7.073 2.893 0 2.24-1.798 3.197-6.022 3.197-5.306 0-6.473-1.333-6.864-3.97a.58.58 0 0 0-.576-.491h-2.592c-.32 0-.58.256-.58.577 0 3.378 1.838 7.406 10.61 7.406 6.353 0 9.996-2.503 9.996-6.87h0zm8.812-23.464v.4h1.13v2.952h.457v-2.952h1.133v-.4h-2.718zm3.123 3.35h.434V14.8c0-.08-.004-.204-.008-.37s-.006-.295-.006-.378v-.1l.966 2.827h.45l.958-2.827-.007.51-.003.34v1.978h.434v-3.35h-.646l-.958 2.833-.963-2.833h-.65v3.35z" fill="#83cd29" fill-rule="evenodd"/></svg>