<svg xmlns="http://www.w3.org/2000/svg" width="64" height="64" fill-rule="evenodd" xmlns:v="https://vecta.io/nano"><rect fill="#f4ae1e" x="9" y="9" width="50" height="50" rx="4"/><rect fill="#ffc321" x="5" y="5" width="50" height="50" rx="4"/><path d="M44 24h7v13h-7v8H27v-3h14v-5h-7V24h7v-4H27v-3h17v7zm-7 3h0v7h11v-7H37z" fill="#fff"/><path fill="#fbfbfb" d="M18 26h3v10h-3z"/><path d="M19.5 48.5a5.5 5.5 0 1 0 0-11 5.5 5.5 0 1 0 0 11h0zm0 3h0a8.5 8.5 0 1 1 0-17 8.5 8.5 0 1 1 0 17h0zm-.1-38.757h0L13.743 18.4l5.657 5.657 5.657-5.657-5.657-5.657zm2.12-2.12h0L29.3 18.4l-9.9 9.9-9.9-9.9 9.9-9.9 2.12 2.12z" fill="#fff"/></svg>