<svg xmlns="http://www.w3.org/2000/svg" width="64" height="64" fill="none" fill-rule="evenodd" xmlns:v="https://vecta.io/nano"><rect fill="#2f8d6d" x="9" y="9" width="50" height="50" rx="4"/><rect fill="#2fc087" x="5" y="5" width="50" height="50" rx="4"/><g stroke="#fff"><path d="M34.57 28.4l3.026 5.73m-13.382-2.986l2.985-5.357m3.944 13.433H25.43" stroke-linecap="round" stroke-linejoin="round" stroke-width="2"/><path d="M14 39.23c0-3.186 2.56-5.77 5.714-5.77s5.714 2.583 5.714 5.77S22.87 45 19.714 45 14 42.417 14 39.23h0zm20.57 0c0-3.186 2.56-5.77 5.714-5.77S46 36.045 46 39.23 43.44 45 40.286 45s-5.714-2.583-5.714-5.77h0zM24.286 20.77c0-3.186 2.56-5.77 5.714-5.77s5.714 2.583 5.714 5.77-2.56 5.77-5.714 5.77-5.714-2.583-5.714-5.77h0z" stroke-linejoin="round" stroke-width="2"/></g></svg>